<svg xmlns="http://www.w3.org/2000/svg" viewBox="0 0 90.07 24.09"><defs><style>.cls-1{fill:#25305d;}.cls-2{fill:#2fa836;}</style></defs><g id="Capa_2" data-name="Capa 2"><g id="Capa_4" data-name="Capa 4"><path class="cls-1" d="M41.27,22.92l1.27-2.8H52.75L54,22.92a1.31,1.31,0,0,0,.75.69,1.2,1.2,0,0,0,1,0,1.29,1.29,0,0,0,.71-.74,1.25,1.25,0,0,0,0-1L48.83,5.06a1.32,1.32,0,0,0-2.38,0L38.88,21.84a1.21,1.21,0,0,0,0,1,1.31,1.31,0,0,0,.7.74,1.24,1.24,0,0,0,1,0A1.33,1.33,0,0,0,41.27,22.92ZM47.64,8.8l3.91,8.69H43.72Z"/><path class="cls-1" d="M74.82,22.93l1.27-2.8H86.3l1.25,2.8a1.29,1.29,0,0,0,.74.69,1.2,1.2,0,0,0,1,0,1.26,1.26,0,0,0,.71-.74,1.25,1.25,0,0,0,0-1L82.38,5.07a1.32,1.32,0,0,0-2.38,0L72.43,21.85a1.17,1.17,0,0,0,0,1,1.26,1.26,0,0,0,.69.74,1.24,1.24,0,0,0,1,0A1.33,1.33,0,0,0,74.82,22.93ZM81.19,8.81,85.1,17.5H77.27Z"/><path class="cls-1" d="M69.72,21.43a1.29,1.29,0,0,0-.94-.38H61.6V5.6a1.27,1.27,0,0,0-.39-.93A1.31,1.31,0,0,0,59,5.6V22.36a1.23,1.23,0,0,0,.39.93,1.25,1.25,0,0,0,.93.39h8.48a1.29,1.29,0,0,0,.94-.39,1.26,1.26,0,0,0,.37-.93A1.3,1.3,0,0,0,69.72,21.43Z"/><path class="cls-1" d="M15.81,21.69,7.58,13.18l6.54-6.54a1.28,1.28,0,0,0,.38-.93,1.3,1.3,0,0,0-1.32-1.32,1.17,1.17,0,0,0-.78.28L2.61,14.45V5.5a1.18,1.18,0,0,0-.36-.73,1.27,1.27,0,0,0-.93-.39,1.23,1.23,0,0,0-.93.39A1.24,1.24,0,0,0,0,5.68V22.46a1.29,1.29,0,0,0,.39.93,1.27,1.27,0,0,0,.93.39,1.31,1.31,0,0,0,.93-.39,1.23,1.23,0,0,0,.36-.75v-4.5L5.75,15l8.08,8.4a1.31,1.31,0,0,0,.94.38,1.28,1.28,0,0,0,.93-.38,1.31,1.31,0,0,0,.38-.94A1.21,1.21,0,0,0,15.81,21.69Z"/><path class="cls-2" d="M34.6,6.94A9.65,9.65,0,0,0,27.5,4a9.71,9.71,0,0,0-7.1,2.93A9.63,9.63,0,0,0,17.45,14a9.7,9.7,0,0,0,2.95,7.1,9.69,9.69,0,0,0,7.1,2.95,9.56,9.56,0,0,0,7.1-2.95A9.72,9.72,0,0,0,37.54,14,9.62,9.62,0,0,0,34.6,6.94ZM32.73,19.28h0a7.39,7.39,0,0,1-10.46,0A7.2,7.2,0,0,1,20.1,14a7.15,7.15,0,0,1,2.16-5.22,7.4,7.4,0,0,1,10.47,0A7.12,7.12,0,0,1,34.9,14,7.2,7.2,0,0,1,32.73,19.28Z"/><circle class="cls-2" cx="36.12" cy="2.2" r="2.2"/></g></g></svg>