<svg xmlns="http://www.w3.org/2000/svg" viewBox="0 0 203.6 54.62"><defs><style>.cls-1{fill:#272859;}.cls-2{fill:#0d1146;}.cls-3{fill:#101448;}.cls-4{fill:#43a833;}</style></defs><g id="Capa_2" data-name="Capa 2"><g id="Capa_1-2" data-name="Capa 1"><path class="cls-1" d="M.83,52.55,0,52.16V11.79l.81-.42c1.8,1.44,1.78,3.53,1.8,5.52Q2.79,32,2.61,47C2.59,49,2.61,51.1.83,52.55Z"/><path class="cls-2" d="M.83,52.55q0-20.59,0-41.18C4.47,9.28,5.94,9.91,6.05,14c.17,5.79,0,11.59,0,18.94C13.42,25.45,19.69,19,26,12.63c1.57-1.58,3.19-4.24,5.78-1.8,2.88,2.71,0,4.45-1.63,6.17-3.38,3.5-6.74,7-10.33,10.32-2.14,2-2.05,3.27,0,5.25,4.91,4.82,9.61,9.84,14.39,14.8,1.53,1.59,3.44,3.37,1.36,5.56-2.4,2.53-4.17.3-5.81-1.41-4.78-5-9.61-9.86-14.26-14.92-1.75-1.89-2.7-1.75-4.83-.18C6,39.84,5.91,44.35,6,49.34,6.14,53.86,4.71,54.59.83,52.55Z"/><path class="cls-3" d="M133.2,31.65c0-5.71,0-11.42,0-17.13,0-2.32.15-4.72,3.15-4.68s2.93,2.61,2.93,4.82c0,9.4.23,18.81-.11,28.2-.14,4.17,1.28,5.23,5.12,4.9a100.52,100.52,0,0,1,10.56,0c1.79,0,3.42.59,3.51,2.76.1,2.38-1.49,3.26-3.56,3.28-5.87.07-11.73.06-17.6,0-3,0-4.07-1.65-4-4.54C133.27,43.4,133.2,37.52,133.2,31.65Z"/><path class="cls-4" d="M86.74,5c-.32,3.07-1.86,5-5.12,4.94a4.53,4.53,0,0,1-4.87-4.66C76.59,2.2,78.4.1,81.54,0S86.37,1.86,86.74,5Z"/><path class="cls-4" d="M62.52,9A23,23,0,0,0,39.44,32,22.63,22.63,0,0,0,62.21,54.62,22.31,22.31,0,0,0,84.89,32,22.75,22.75,0,0,0,62.52,9Zm-.39,39.56A16.7,16.7,0,0,1,45.52,31.78a17,17,0,0,1,16.8-16.64A16.72,16.72,0,0,1,78.84,32,16.54,16.54,0,0,1,62.13,48.53Z"/><path class="cls-2" d="M127,48.23q-8-17.65-15.92-35.35c-.7-1.57-1.33-3.12-3.46-3.1s-2.7,1.73-3.38,3.23Q96.36,30.46,88.54,47.92c-1,2.12-1.82,4.33,1,5.5,2.5,1,3.87-.79,4.4-2.85,1.17-4.51,4.12-5.56,8.29-5a35.15,35.15,0,0,0,5,0h1.51c5.46.06,11.64-1.66,13.41,6.45.39,1.8,2.57,2.16,4.23,1C128.45,51.82,127.79,50,127,48.23Zm-13.74-8.52c-3.68-.07-7.38-.09-11.06,0-2.47.06-3-.77-1.91-3,2.39-5.14,4.65-10.34,7.42-16.53,2.87,6.33,5.13,11.53,7.58,16.65C116.44,39.32,115.45,39.76,113.24,39.71Z"/><path class="cls-3" d="M203.05,48.93q-8.25-18.39-16.53-36.76c-.58-1.28-1.32-2.34-2.92-2.38-2.13,0-2.78,1.51-3.49,3.08q-7.94,17.7-15.92,35.37c-.9,2-1.55,4,1,5.13s4-.47,4.49-2.61c1.1-5,4.47-5.54,8.68-5.15a55.43,55.43,0,0,0,7.06,0c5.3-.18,10.9-1.18,12.46,6.31.32,1.53,2,2.16,3.74,1.54a2.94,2.94,0,0,0,2-3A14,14,0,0,0,203.05,48.93Zm-13.62-9.22c-4-.07-8-.06-12,0-1.87,0-2.44-.6-1.63-2.38,2.46-5.39,4.88-10.79,7.69-17,2.81,6.17,5.17,11.41,7.58,16.64C191.9,38.74,191.75,39.75,189.43,39.71Z"/></g></g></svg>