<svg xmlns="http://www.w3.org/2000/svg" viewBox="0 0 45.45 45.65"><defs><style>.cls-1{fill:none;}.cls-2{fill:#43a833;}</style></defs><g id="Capa_2" data-name="Capa 2"><g id="Capa_1-2" data-name="Capa 1"><path class="cls-1" d="M23.08,0A23,23,0,0,0,0,23,22.63,22.63,0,0,0,22.77,45.65a22.3,22.3,0,0,0,22.68-22.6A22.74,22.74,0,0,0,23.08,0Zm-.39,39.56A16.7,16.7,0,0,1,6.08,22.81,17,17,0,0,1,22.89,6.17,16.72,16.72,0,0,1,39.4,23,16.54,16.54,0,0,1,22.69,39.56Z"/><path class="cls-2" d="M38.64,7.79c-.21,2-1.23,3.29-3.4,3.29A3,3,0,0,1,32,8a3.09,3.09,0,0,1,3.19-3.52C37.27,4.39,38.4,5.69,38.64,7.79Z"/></g></g></svg>